<?xml version="1.0" encoding="UTF-8"?>
<!DOCTYPE svg PUBLIC "-//W3C//DTD SVG 1.1//EN" "http://www.w3.org/Graphics/SVG/1.1/DTD/svg11.dtd">
<!-- Creator: CorelDRAW 2019 (64 Bit) -->
<svg xmlns="http://www.w3.org/2000/svg" xml:space="preserve" width="1050px" height="272px" version="1.1" style="shape-rendering:geometricPrecision; text-rendering:geometricPrecision; image-rendering:optimizeQuality; fill-rule:evenodd; clip-rule:evenodd"
viewBox="0 0 1050 272"
 xmlns:xlink="http://www.w3.org/1999/xlink">
 <defs>
  <style type="text/css">
   <![CDATA[
    .fil0 {fill:#FEFEFE}
    .fil2 {fill:#165884}
    .fil1 {fill:#2493EA}
    .fil4 {fill:#2493EA;fill-rule:nonzero}
    .fil3 {fill:#FFD325;fill-rule:nonzero}
   ]]>
  </style>
   <mask id="id0">
  <linearGradient id="id1" gradientUnits="userSpaceOnUse" x1="834.83" y1="85.38" x2="829.53" y2="176.86">
   <stop offset="0" style="stop-opacity:1; stop-color:white"/>
   <stop offset="1" style="stop-opacity:0; stop-color:white"/>
  </linearGradient>
    <rect style="fill:url(#id1)" x="757.92" y="96.37" width="132.63" height="69.45"/>
   </mask>
 </defs>
 <g id="Camada_x0020_1">
  <metadata id="CorelCorpID_0Corel-Layer"/>
  <path class="fil0" d="M732.11 1.8l78.78 0 -72.98 95.75 -53.37 0 0 -48.18c0,-26.27 21.3,-47.57 47.57,-47.57z"/>
  <path class="fil1" d="M832.08 1.8l216.6 0 -72.98 95.75 8.96 -11.76c-6.68,7.12 -16.13,11.61 -26.62,11.76l-198.94 0 72.98 -95.75z"/>
  <polygon class="fil1" points="759.1,97.55 889.37,97.55 759.1,270.2 "/>
  <path class="fil2" style="mask:url(#id0)" d="M889.37 97.55l-130.27 0c43.24,2.38 64.94,30.16 78.87,67.09l51.4 -67.09z"/>
  <path class="fil3" d="M63.23 254.04l0 -119.28 -61.91 0 0 -28.36 156.95 0 0 28.36 -61.91 0 0 119.28 -33.13 0zm135.95 -46.76l0 5.41c0,3.61 0.29,6.5 0.87,8.66 0.58,2.17 1.62,3.86 3.14,5.09 1.51,1.23 3.54,2.06 6.06,2.49 2.53,0.43 5.67,0.65 9.42,0.65l38.1 0 0 24.46 -38.1 0c-18.62,0 -31.9,-3.53 -39.84,-10.61 -7.93,-7.07 -11.9,-18.4 -11.9,-33.98l0 -27.06c0,-8.52 0.83,-15.7 2.49,-21.54 1.66,-5.85 4.54,-10.54 8.66,-14.08 4.11,-3.53 9.56,-6.09 16.34,-7.68 6.78,-1.59 15.37,-2.38 25.76,-2.38l56.72 0c8.37,0 15.34,0.79 20.89,2.38 5.56,1.59 9.96,3.79 13.21,6.6 3.24,2.82 5.52,6.21 6.82,10.18 1.3,3.97 1.95,8.26 1.95,12.88l0 38.53 -120.59 0zm88.33 -35.93c0,-3.9 -0.98,-6.5 -2.92,-7.8 -1.95,-1.3 -5.38,-1.95 -10.29,-1.95l-53.68 0c-4.04,0 -7.44,0.18 -10.18,0.54 -2.74,0.37 -4.94,1.2 -6.6,2.49 -1.66,1.3 -2.85,3.18 -3.57,5.63 -0.72,2.46 -1.09,5.78 -1.09,9.96l0 6.28 88.33 0 0 -15.15zm55.64 82.69l0 -155.22 32.9 0 0 155.22 -32.9 0z"/>
  <path class="fil4" d="M559.41 121.55c0,5.34 -2.09,9.89 -6.28,13.64l-103.48 90.71 113.66 0 0 28.14 -152.41 0c-4.61,0 -8.15,-1.33 -10.6,-4 -2.46,-2.67 -3.68,-6.17 -3.68,-10.5 0,-5.49 2.23,-10.18 6.71,-14.07l105.64 -90.71 -108.89 0 0 -28.36 145.04 0c4.62,0 8.16,1.48 10.61,4.44 2.45,2.96 3.68,6.53 3.68,10.71zm24.68 132.49l0 -114.3 32.91 0 0 114.3 -32.91 0zm11.04 -124.04c-4.04,0 -6.89,-0.8 -8.55,-2.38 -1.66,-1.59 -2.49,-4.12 -2.49,-7.58l0 -12.56c0,-3.46 0.83,-5.95 2.49,-7.47 1.66,-1.51 4.51,-2.27 8.55,-2.27l10.61 0c4.18,0 7.11,0.76 8.77,2.27 1.66,1.52 2.49,4.01 2.49,7.47l0 12.56c0,3.46 -0.83,5.99 -2.49,7.58 -1.66,1.58 -4.59,2.38 -8.77,2.38l-10.61 0zm47.41 124.04l0 -67.97c0,-8.81 1.01,-16.31 3.03,-22.52 2.02,-6.2 5.23,-11.29 9.64,-15.26 4.4,-3.97 10.06,-6.89 16.99,-8.77 6.93,-1.87 15.37,-2.81 25.33,-2.81l21 0 -19.97 26.19 -0.17 0c-4.47,0 -8.22,0.36 -11.25,1.08 -3.03,0.73 -5.45,1.95 -7.26,3.68 -1.8,1.74 -3.1,4.12 -3.89,7.15 -0.8,3.03 -1.19,6.85 -1.19,11.47l0 67.76 -32.26 0z"/>
 </g>
</svg>
